<mxfile host="app.diagrams.net" modified="2022-03-29T10:53:25.026Z" agent="5.0 (Windows NT 10.0; Win64; x64) AppleWebKit/537.36 (KHTML, like Gecko) Chrome/99.0.4844.84 Safari/537.36" etag="UswUWoGlPa15Ih6lZfqw" version="17.2.4" type="github">
  <diagram name="Page-1" id="b520641d-4fe3-3701-9064-5fc419738815">
    <mxGraphModel dx="2031" dy="1489" grid="1" gridSize="10" guides="1" tooltips="1" connect="1" arrows="1" fold="1" page="0" pageScale="1" pageWidth="1100" pageHeight="850" background="none" math="0" shadow="1">
      <root>
        <mxCell id="0" />
        <mxCell id="1" parent="0" />
        <mxCell id="tPE-32FipRdGpnMbUiPh-1" value="HOME" style="swimlane;fontStyle=1;childLayout=stackLayout;horizontal=1;startSize=30;horizontalStack=0;resizeParent=1;resizeParentMax=0;resizeLast=0;collapsible=1;marginBottom=0;fillColor=#dae8fc;strokeColor=default;gradientColor=none;swimlaneFillColor=default;strokeWidth=2;perimeterSpacing=0;rounded=1;shadow=1;sketch=0;glass=0;fontSize=14;" parent="1" vertex="1">
          <mxGeometry x="810" y="50" width="240" height="630" as="geometry">
            <mxRectangle x="50" y="140" width="70" height="30" as="alternateBounds" />
          </mxGeometry>
        </mxCell>
        <mxCell id="n5QsFFlIIkBd-EJtn_40-27" value="Menú Principal" style="swimlane;fontStyle=0;childLayout=stackLayout;horizontal=1;startSize=30;horizontalStack=0;resizeParent=1;resizeParentMax=0;resizeLast=0;collapsible=1;marginBottom=0;fontFamily=Helvetica;fontSize=14;strokeWidth=1;fillColor=#1ba1e2;strokeColor=#006EAF;swimlaneFillColor=default;fontColor=#ffffff;" parent="tPE-32FipRdGpnMbUiPh-1" vertex="1">
          <mxGeometry y="30" width="240" height="180" as="geometry">
            <mxRectangle y="30" width="240" height="30" as="alternateBounds" />
          </mxGeometry>
        </mxCell>
        <mxCell id="n5QsFFlIIkBd-EJtn_40-28" value="Comprar un coche" style="text;strokeColor=#BFBFBF;fillColor=none;align=left;verticalAlign=middle;spacingLeft=4;spacingRight=4;overflow=hidden;points=[[0,0.5],[1,0.5]];portConstraint=eastwest;rotatable=0;fontFamily=Helvetica;fontSize=11;fontColor=default;strokeWidth=1;" parent="n5QsFFlIIkBd-EJtn_40-27" vertex="1">
          <mxGeometry y="30" width="240" height="30" as="geometry" />
        </mxCell>
        <mxCell id="n5QsFFlIIkBd-EJtn_40-29" value="Vendo mi coche" style="text;strokeColor=#BFBFBF;fillColor=none;align=left;verticalAlign=middle;spacingLeft=4;spacingRight=4;overflow=hidden;points=[[0,0.5],[1,0.5]];portConstraint=eastwest;rotatable=0;fontFamily=Helvetica;fontSize=11;fontColor=default;strokeWidth=1;" parent="n5QsFFlIIkBd-EJtn_40-27" vertex="1">
          <mxGeometry y="60" width="240" height="30" as="geometry" />
        </mxCell>
        <mxCell id="n5QsFFlIIkBd-EJtn_40-30" value="Alquiler de vehículos" style="text;strokeColor=#BFBFBF;fillColor=none;align=left;verticalAlign=middle;spacingLeft=4;spacingRight=4;overflow=hidden;points=[[0,0.5],[1,0.5]];portConstraint=eastwest;rotatable=0;fontFamily=Helvetica;fontSize=11;fontColor=default;strokeWidth=1;" parent="n5QsFFlIIkBd-EJtn_40-27" vertex="1">
          <mxGeometry y="90" width="240" height="30" as="geometry" />
        </mxCell>
        <mxCell id="n5QsFFlIIkBd-EJtn_40-31" value=" Centros" style="text;strokeColor=#BFBFBF;fillColor=none;align=left;verticalAlign=middle;spacingLeft=4;spacingRight=4;overflow=hidden;points=[[0,0,0,0.5],[1,0.5]];portConstraint=eastwest;rotatable=0;fontFamily=Helvetica;fontSize=11;fontColor=default;strokeWidth=1;" parent="n5QsFFlIIkBd-EJtn_40-27" vertex="1">
          <mxGeometry y="120" width="240" height="30" as="geometry" />
        </mxCell>
        <mxCell id="n5QsFFlIIkBd-EJtn_40-32" value="Dropdown -  Datos Contacto" style="text;strokeColor=#BFBFBF;fillColor=none;align=left;verticalAlign=middle;spacingLeft=4;spacingRight=4;overflow=hidden;points=[[0,0.5],[1,0.5]];portConstraint=eastwest;rotatable=0;fontFamily=Helvetica;fontSize=11;fontColor=default;strokeWidth=1;" parent="n5QsFFlIIkBd-EJtn_40-27" vertex="1">
          <mxGeometry y="150" width="240" height="30" as="geometry" />
        </mxCell>
        <mxCell id="n5QsFFlIIkBd-EJtn_40-39" value="Banners campañas" style="text;strokeColor=#8C8C8C;fillColor=none;align=center;verticalAlign=middle;spacingLeft=4;spacingRight=4;overflow=hidden;points=[[0,0.5],[1,0.5]];portConstraint=eastwest;rotatable=0;strokeWidth=1;fontStyle=0;fontSize=14;" parent="tPE-32FipRdGpnMbUiPh-1" vertex="1">
          <mxGeometry y="210" width="240" height="30" as="geometry" />
        </mxCell>
        <mxCell id="tPE-32FipRdGpnMbUiPh-10" value="Busqueda categoría | Inteligente" style="text;strokeColor=#8C8C8C;fillColor=none;align=center;verticalAlign=middle;spacingLeft=4;spacingRight=4;overflow=hidden;points=[[0,0.5],[1,0.5]];portConstraint=eastwest;rotatable=0;strokeWidth=1;fontStyle=0;fontSize=14;" parent="tPE-32FipRdGpnMbUiPh-1" vertex="1">
          <mxGeometry y="240" width="240" height="30" as="geometry" />
        </mxCell>
        <mxCell id="tPE-32FipRdGpnMbUiPh-12" value="Componente Financiación" style="text;strokeColor=#8C8C8C;fillColor=none;align=center;verticalAlign=middle;spacingLeft=4;spacingRight=4;overflow=hidden;points=[[0,0.5],[1,0.5]];portConstraint=eastwest;rotatable=0;strokeWidth=1;fontStyle=0;fontSize=14;" parent="tPE-32FipRdGpnMbUiPh-1" vertex="1">
          <mxGeometry y="270" width="240" height="30" as="geometry" />
        </mxCell>
        <mxCell id="tPE-32FipRdGpnMbUiPh-13" value="Acceso Tasador" style="text;strokeColor=#8C8C8C;fillColor=none;align=center;verticalAlign=middle;spacingLeft=4;spacingRight=4;overflow=hidden;points=[[0,0.5],[1,0.5]];portConstraint=eastwest;rotatable=0;strokeWidth=1;fontStyle=0;fontSize=14;" parent="tPE-32FipRdGpnMbUiPh-1" vertex="1">
          <mxGeometry y="300" width="240" height="30" as="geometry" />
        </mxCell>
        <mxCell id="tPE-32FipRdGpnMbUiPh-16" value="Slider - listado - coches recientes" style="text;strokeColor=#8C8C8C;fillColor=none;align=center;verticalAlign=middle;spacingLeft=4;spacingRight=4;overflow=hidden;points=[[0,0.5],[1,0.5]];portConstraint=eastwest;rotatable=0;strokeWidth=1;fontStyle=0;fontSize=14;" parent="tPE-32FipRdGpnMbUiPh-1" vertex="1">
          <mxGeometry y="330" width="240" height="30" as="geometry" />
        </mxCell>
        <mxCell id="tPE-32FipRdGpnMbUiPh-17" value="Testimonios" style="text;strokeColor=#8C8C8C;fillColor=none;align=center;verticalAlign=middle;spacingLeft=4;spacingRight=4;overflow=hidden;points=[[0,0.5],[1,0.5]];portConstraint=eastwest;rotatable=0;strokeWidth=1;fontStyle=0;fontSize=14;" parent="tPE-32FipRdGpnMbUiPh-1" vertex="1">
          <mxGeometry y="360" width="240" height="30" as="geometry" />
        </mxCell>
        <mxCell id="tPE-32FipRdGpnMbUiPh-19" value="Bullets de info + URLs" style="text;strokeColor=#8C8C8C;fillColor=none;align=center;verticalAlign=middle;spacingLeft=4;spacingRight=4;overflow=hidden;points=[[0,0.5],[1,0.5]];portConstraint=eastwest;rotatable=0;strokeWidth=1;fontStyle=0;fontSize=14;" parent="tPE-32FipRdGpnMbUiPh-1" vertex="1">
          <mxGeometry y="390" width="240" height="30" as="geometry" />
        </mxCell>
        <mxCell id="n5QsFFlIIkBd-EJtn_40-43" value="Footer" style="swimlane;fontStyle=0;childLayout=stackLayout;horizontal=1;startSize=30;horizontalStack=0;resizeParent=1;resizeParentMax=0;resizeLast=0;collapsible=1;marginBottom=0;fontFamily=Verdana;fontSize=14;strokeWidth=1;swimlaneFillColor=default;fillColor=#383838;fontColor=#FFFFFF;" parent="tPE-32FipRdGpnMbUiPh-1" vertex="1">
          <mxGeometry y="420" width="240" height="210" as="geometry">
            <mxRectangle y="480" width="240" height="30" as="alternateBounds" />
          </mxGeometry>
        </mxCell>
        <mxCell id="n5QsFFlIIkBd-EJtn_40-44" value="Logo | Legal | etc." style="text;strokeColor=none;fillColor=none;align=left;verticalAlign=middle;spacingLeft=4;spacingRight=4;overflow=hidden;points=[[0,0.5],[1,0.5]];portConstraint=eastwest;rotatable=0;fontFamily=Helvetica;fontSize=11;fontColor=default;" parent="n5QsFFlIIkBd-EJtn_40-43" vertex="1">
          <mxGeometry y="30" width="240" height="30" as="geometry" />
        </mxCell>
        <mxCell id="n5QsFFlIIkBd-EJtn_40-45" value="Zonas pulsables de contacto, telf., email, etc." style="text;strokeColor=none;fillColor=none;align=left;verticalAlign=middle;spacingLeft=4;spacingRight=4;overflow=hidden;points=[[0,0.5],[1,0.5]];portConstraint=eastwest;rotatable=0;fontFamily=Helvetica;fontSize=11;fontColor=default;" parent="n5QsFFlIIkBd-EJtn_40-43" vertex="1">
          <mxGeometry y="60" width="240" height="30" as="geometry" />
        </mxCell>
        <mxCell id="n5QsFFlIIkBd-EJtn_40-46" value="Enlaces por Marca, Tipo, Modelo" style="text;strokeColor=none;fillColor=none;align=left;verticalAlign=middle;spacingLeft=4;spacingRight=4;overflow=hidden;points=[[0,0.5],[1,0.5]];portConstraint=eastwest;rotatable=0;fontFamily=Helvetica;fontSize=11;fontColor=default;" parent="n5QsFFlIIkBd-EJtn_40-43" vertex="1">
          <mxGeometry y="90" width="240" height="30" as="geometry" />
        </mxCell>
        <mxCell id="n5QsFFlIIkBd-EJtn_40-47" value="Centros | Talleres" style="text;strokeColor=none;fillColor=none;align=left;verticalAlign=middle;spacingLeft=4;spacingRight=4;overflow=hidden;points=[[0,0.5],[1,0.5]];portConstraint=eastwest;rotatable=0;fontFamily=Helvetica;fontSize=11;fontColor=default;" parent="n5QsFFlIIkBd-EJtn_40-43" vertex="1">
          <mxGeometry y="120" width="240" height="30" as="geometry" />
        </mxCell>
        <mxCell id="n5QsFFlIIkBd-EJtn_40-48" value="Sobre Ocasion Plus | Blog" style="text;strokeColor=none;fillColor=none;align=left;verticalAlign=middle;spacingLeft=4;spacingRight=4;overflow=hidden;points=[[0,0.5],[1,0.5]];portConstraint=eastwest;rotatable=0;fontFamily=Helvetica;fontSize=11;fontColor=default;" parent="n5QsFFlIIkBd-EJtn_40-43" vertex="1">
          <mxGeometry y="150" width="240" height="30" as="geometry" />
        </mxCell>
        <mxCell id="n5QsFFlIIkBd-EJtn_40-49" value="Redes Sociales" style="text;strokeColor=none;fillColor=none;align=left;verticalAlign=middle;spacingLeft=4;spacingRight=4;overflow=hidden;points=[[0,0.5],[1,0.5]];portConstraint=eastwest;rotatable=0;fontFamily=Helvetica;fontSize=11;fontColor=default;" parent="n5QsFFlIIkBd-EJtn_40-43" vertex="1">
          <mxGeometry y="180" width="240" height="30" as="geometry" />
        </mxCell>
        <mxCell id="n5QsFFlIIkBd-EJtn_40-1" value="LISTADO VEHÍCULOS" style="swimlane;fontStyle=1;childLayout=stackLayout;horizontal=1;startSize=30;horizontalStack=0;resizeParent=1;resizeParentMax=0;resizeLast=0;collapsible=1;marginBottom=0;fillColor=#dae8fc;strokeColor=default;gradientColor=none;swimlaneFillColor=default;strokeWidth=2;perimeterSpacing=0;rounded=1;shadow=1;sketch=0;glass=0;fontSize=14;" parent="1" vertex="1">
          <mxGeometry x="530" y="550" width="240" height="120" as="geometry">
            <mxRectangle x="530" y="420" width="70" height="30" as="alternateBounds" />
          </mxGeometry>
        </mxCell>
        <mxCell id="n5QsFFlIIkBd-EJtn_40-3" value="Sidebar - Filtros avanzados" style="text;strokeColor=none;fillColor=none;align=center;verticalAlign=middle;spacingLeft=4;spacingRight=4;overflow=hidden;points=[[0,0.5],[1,0.5]];portConstraint=eastwest;rotatable=0;strokeWidth=2;fontStyle=0;fontSize=14;" parent="n5QsFFlIIkBd-EJtn_40-1" vertex="1">
          <mxGeometry y="30" width="240" height="30" as="geometry" />
        </mxCell>
        <mxCell id="n5QsFFlIIkBd-EJtn_40-4" value="Listado ordenado coches" style="text;strokeColor=none;fillColor=none;align=center;verticalAlign=middle;spacingLeft=4;spacingRight=4;overflow=hidden;points=[[0,0.5],[1,0.5]];portConstraint=eastwest;rotatable=0;strokeWidth=2;fontStyle=0;fontSize=14;" parent="n5QsFFlIIkBd-EJtn_40-1" vertex="1">
          <mxGeometry y="60" width="240" height="30" as="geometry" />
        </mxCell>
        <mxCell id="n5QsFFlIIkBd-EJtn_40-22" value="Área otros enlaces" style="swimlane;fontStyle=0;childLayout=stackLayout;horizontal=1;startSize=30;horizontalStack=0;resizeParent=1;resizeParentMax=0;resizeLast=0;collapsible=1;marginBottom=0;fontFamily=Helvetica;fontSize=14;strokeWidth=1;fillColor=#EBEBEB;strokeColor=#36393d;gradientColor=none;swimlaneFillColor=default;" parent="n5QsFFlIIkBd-EJtn_40-1" vertex="1" collapsed="1">
          <mxGeometry y="90" width="240" height="30" as="geometry">
            <mxRectangle y="90" width="240" height="120" as="alternateBounds" />
          </mxGeometry>
        </mxCell>
        <mxCell id="n5QsFFlIIkBd-EJtn_40-23" value="Mejores marcas" style="text;strokeColor=none;fillColor=none;align=left;verticalAlign=middle;spacingLeft=4;spacingRight=4;overflow=hidden;points=[[0,0.5],[1,0.5]];portConstraint=eastwest;rotatable=0;fontFamily=Helvetica;fontSize=11;fontColor=default;" parent="n5QsFFlIIkBd-EJtn_40-22" vertex="1">
          <mxGeometry y="30" width="240" height="30" as="geometry" />
        </mxCell>
        <mxCell id="n5QsFFlIIkBd-EJtn_40-24" value="Links a coches en Madrid, Barcelona, etc." style="text;strokeColor=none;fillColor=none;align=left;verticalAlign=middle;spacingLeft=4;spacingRight=4;overflow=hidden;points=[[0,0.5],[1,0.5]];portConstraint=eastwest;rotatable=0;fontFamily=Helvetica;fontSize=11;fontColor=default;" parent="n5QsFFlIIkBd-EJtn_40-22" vertex="1">
          <mxGeometry y="60" width="240" height="30" as="geometry" />
        </mxCell>
        <mxCell id="n5QsFFlIIkBd-EJtn_40-25" value="Tipos de carrocerías: Suv, turismos, etc." style="text;strokeColor=none;fillColor=none;align=left;verticalAlign=middle;spacingLeft=4;spacingRight=4;overflow=hidden;points=[[0,0.5],[1,0.5]];portConstraint=eastwest;rotatable=0;fontFamily=Helvetica;fontSize=11;fontColor=default;" parent="n5QsFFlIIkBd-EJtn_40-22" vertex="1">
          <mxGeometry y="90" width="240" height="30" as="geometry" />
        </mxCell>
        <mxCell id="n5QsFFlIIkBd-EJtn_40-64" value="TASADOR VEHÍCULOS" style="swimlane;fontStyle=1;childLayout=stackLayout;horizontal=1;startSize=30;horizontalStack=0;resizeParent=1;resizeParentMax=0;resizeLast=0;collapsible=1;marginBottom=0;fillColor=#dae8fc;strokeColor=default;gradientColor=none;swimlaneFillColor=default;strokeWidth=2;perimeterSpacing=0;rounded=1;shadow=1;sketch=0;glass=0;fontSize=14;" parent="1" vertex="1">
          <mxGeometry x="1080" y="550" width="240" height="180" as="geometry">
            <mxRectangle x="1080" y="425" width="70" height="30" as="alternateBounds" />
          </mxGeometry>
        </mxCell>
        <mxCell id="n5QsFFlIIkBd-EJtn_40-80" value="Componente Tasador" style="text;strokeColor=none;fillColor=none;align=center;verticalAlign=middle;spacingLeft=4;spacingRight=4;overflow=hidden;points=[[0,0.5],[1,0.5]];portConstraint=eastwest;rotatable=0;strokeWidth=2;fontStyle=0;fontSize=14;" parent="n5QsFFlIIkBd-EJtn_40-64" vertex="1">
          <mxGeometry y="30" width="240" height="30" as="geometry" />
        </mxCell>
        <mxCell id="n5QsFFlIIkBd-EJtn_40-83" value="Mapa interactivo centros" style="text;strokeColor=none;fillColor=none;align=center;verticalAlign=middle;spacingLeft=4;spacingRight=4;overflow=hidden;points=[[0,0.5],[1,0.5]];portConstraint=eastwest;rotatable=0;strokeWidth=2;fontStyle=0;fontSize=14;" parent="n5QsFFlIIkBd-EJtn_40-64" vertex="1">
          <mxGeometry y="60" width="240" height="30" as="geometry" />
        </mxCell>
        <mxCell id="n5QsFFlIIkBd-EJtn_40-84" value="Compramos tu coche en tu CCAA" style="text;strokeColor=none;fillColor=none;align=center;verticalAlign=middle;spacingLeft=4;spacingRight=4;overflow=hidden;points=[[0,0.5],[1,0.5]];portConstraint=eastwest;rotatable=0;strokeWidth=2;fontStyle=0;fontSize=14;" parent="n5QsFFlIIkBd-EJtn_40-64" vertex="1">
          <mxGeometry y="90" width="240" height="30" as="geometry" />
        </mxCell>
        <mxCell id="n5QsFFlIIkBd-EJtn_40-85" value="Testimonial" style="text;strokeColor=none;fillColor=none;align=center;verticalAlign=middle;spacingLeft=4;spacingRight=4;overflow=hidden;points=[[0,0.5],[1,0.5]];portConstraint=eastwest;rotatable=0;strokeWidth=2;fontStyle=0;fontSize=14;" parent="n5QsFFlIIkBd-EJtn_40-64" vertex="1">
          <mxGeometry y="120" width="240" height="30" as="geometry" />
        </mxCell>
        <mxCell id="n5QsFFlIIkBd-EJtn_40-86" value="Qué doc necesito" style="text;strokeColor=none;fillColor=none;align=center;verticalAlign=middle;spacingLeft=4;spacingRight=4;overflow=hidden;points=[[0,0.5],[1,0.5]];portConstraint=eastwest;rotatable=0;strokeWidth=2;fontStyle=0;fontSize=14;" parent="n5QsFFlIIkBd-EJtn_40-64" vertex="1">
          <mxGeometry y="150" width="240" height="30" as="geometry" />
        </mxCell>
        <mxCell id="n5QsFFlIIkBd-EJtn_40-87" value="" style="endArrow=classic;html=1;rounded=0;fontFamily=Verdana;fontSize=11;fontColor=#303030;entryX=0.5;entryY=0;entryDx=0;entryDy=0;" parent="1" source="tPE-32FipRdGpnMbUiPh-13" target="n5QsFFlIIkBd-EJtn_40-64" edge="1">
          <mxGeometry relative="1" as="geometry">
            <mxPoint x="1070" y="250" as="sourcePoint" />
            <mxPoint x="1170" y="250" as="targetPoint" />
            <Array as="points">
              <mxPoint x="1200" y="395" />
            </Array>
          </mxGeometry>
        </mxCell>
        <mxCell id="n5QsFFlIIkBd-EJtn_40-95" value="RentalPlus.es" style="swimlane;fontStyle=1;childLayout=stackLayout;horizontal=1;startSize=30;horizontalStack=0;resizeParent=1;resizeParentMax=0;resizeLast=0;collapsible=1;marginBottom=0;fillColor=#F0F0F0;strokeColor=default;gradientColor=none;swimlaneFillColor=default;strokeWidth=1;perimeterSpacing=0;rounded=1;shadow=1;sketch=0;glass=0;fontSize=14;fontColor=#7D7D7D;arcSize=0;" parent="1" vertex="1">
          <mxGeometry x="580" y="-60" width="230" height="60" as="geometry">
            <mxRectangle x="520" y="-150" width="70" height="30" as="alternateBounds" />
          </mxGeometry>
        </mxCell>
        <mxCell id="n5QsFFlIIkBd-EJtn_40-106" value="FICHA VEHICULO" style="swimlane;fontStyle=1;childLayout=stackLayout;horizontal=1;startSize=30;horizontalStack=0;resizeParent=1;resizeParentMax=0;resizeLast=0;collapsible=1;marginBottom=0;fillColor=#dae8fc;strokeColor=default;gradientColor=none;swimlaneFillColor=default;strokeWidth=2;perimeterSpacing=0;rounded=1;shadow=1;sketch=0;glass=0;fontSize=14;" parent="1" vertex="1">
          <mxGeometry x="530" y="800" width="240" height="210" as="geometry">
            <mxRectangle x="530" y="420" width="70" height="30" as="alternateBounds" />
          </mxGeometry>
        </mxCell>
        <mxCell id="n5QsFFlIIkBd-EJtn_40-107" value="Componente Ficha vehículo" style="text;strokeColor=none;fillColor=none;align=center;verticalAlign=middle;spacingLeft=4;spacingRight=4;overflow=hidden;points=[[0,0.5],[1,0.5]];portConstraint=eastwest;rotatable=0;strokeWidth=2;fontStyle=0;fontSize=14;" parent="n5QsFFlIIkBd-EJtn_40-106" vertex="1">
          <mxGeometry y="30" width="240" height="30" as="geometry" />
        </mxCell>
        <mxCell id="n5QsFFlIIkBd-EJtn_40-113" value="Slide-show emergente" style="text;strokeColor=none;fillColor=none;align=center;verticalAlign=middle;spacingLeft=4;spacingRight=4;overflow=hidden;points=[[0,0.5],[1,0.5]];portConstraint=eastwest;rotatable=0;strokeWidth=2;fontStyle=0;fontSize=14;" parent="n5QsFFlIIkBd-EJtn_40-106" vertex="1">
          <mxGeometry y="60" width="240" height="30" as="geometry" />
        </mxCell>
        <mxCell id="n5QsFFlIIkBd-EJtn_40-121" value="Informe Carfax" style="text;strokeColor=none;fillColor=none;align=center;verticalAlign=middle;spacingLeft=4;spacingRight=4;overflow=hidden;points=[[0,0.5],[1,0.5]];portConstraint=eastwest;rotatable=0;strokeWidth=2;fontStyle=0;fontSize=14;" parent="n5QsFFlIIkBd-EJtn_40-106" vertex="1">
          <mxGeometry y="90" width="240" height="30" as="geometry" />
        </mxCell>
        <mxCell id="n5QsFFlIIkBd-EJtn_40-116" value="Quiero reservarlo" style="text;strokeColor=none;fillColor=none;align=center;verticalAlign=middle;spacingLeft=4;spacingRight=4;overflow=hidden;points=[[0,0.5],[1,0.5]];portConstraint=eastwest;rotatable=0;strokeWidth=2;fontStyle=0;fontSize=14;" parent="n5QsFFlIIkBd-EJtn_40-106" vertex="1">
          <mxGeometry y="120" width="240" height="30" as="geometry" />
        </mxCell>
        <mxCell id="n5QsFFlIIkBd-EJtn_40-114" value="Equipamiento destacado" style="text;strokeColor=none;fillColor=none;align=center;verticalAlign=middle;spacingLeft=4;spacingRight=4;overflow=hidden;points=[[0,0.5],[1,0.5]];portConstraint=eastwest;rotatable=0;strokeWidth=2;fontStyle=0;fontSize=14;" parent="n5QsFFlIIkBd-EJtn_40-106" vertex="1">
          <mxGeometry y="150" width="240" height="30" as="geometry" />
        </mxCell>
        <mxCell id="n5QsFFlIIkBd-EJtn_40-115" value="Datos técnicos" style="text;strokeColor=none;fillColor=none;align=center;verticalAlign=middle;spacingLeft=4;spacingRight=4;overflow=hidden;points=[[0,0.5],[1,0.5]];portConstraint=eastwest;rotatable=0;strokeWidth=2;fontStyle=0;fontSize=14;" parent="n5QsFFlIIkBd-EJtn_40-106" vertex="1">
          <mxGeometry y="180" width="240" height="30" as="geometry" />
        </mxCell>
        <mxCell id="n5QsFFlIIkBd-EJtn_40-119" value="" style="endArrow=classic;html=1;rounded=0;fontFamily=Helvetica;fontSize=14;fontColor=#FFFFFF;entryX=-0.008;entryY=0.106;entryDx=0;entryDy=0;entryPerimeter=0;" parent="1" source="n5QsFFlIIkBd-EJtn_40-4" target="n5QsFFlIIkBd-EJtn_40-106" edge="1">
          <mxGeometry relative="1" as="geometry">
            <mxPoint x="360" y="720" as="sourcePoint" />
            <mxPoint x="460" y="780" as="targetPoint" />
            <Array as="points">
              <mxPoint x="460" y="625" />
              <mxPoint x="460" y="820" />
            </Array>
          </mxGeometry>
        </mxCell>
        <mxCell id="BOkPXNL5kLNex8SF89P--1" value="&lt;font style=&quot;font-size: 35px&quot;&gt;NIVEL 0&lt;/font&gt;" style="text;html=1;strokeColor=none;fillColor=none;align=left;verticalAlign=middle;whiteSpace=wrap;rounded=0;" parent="1" vertex="1">
          <mxGeometry x="78" y="50" width="240" height="30" as="geometry" />
        </mxCell>
        <mxCell id="BOkPXNL5kLNex8SF89P--2" value="&lt;font style=&quot;font-size: 35px&quot;&gt;NIVEL 1 &lt;/font&gt;&lt;font style=&quot;font-size: 18px&quot;&gt;(1 CLIC PROF.)&lt;/font&gt;" style="text;html=1;strokeColor=none;fillColor=none;align=left;verticalAlign=middle;whiteSpace=wrap;rounded=0;" parent="1" vertex="1">
          <mxGeometry x="68" y="550" width="310" height="30" as="geometry" />
        </mxCell>
        <mxCell id="BOkPXNL5kLNex8SF89P--3" value="&lt;font style=&quot;font-size: 35px&quot;&gt;NIVEL 1 &lt;/font&gt;&lt;font style=&quot;font-size: 18px&quot;&gt;(2 CLIC PROF.)&lt;/font&gt;" style="text;html=1;strokeColor=none;fillColor=none;align=left;verticalAlign=middle;whiteSpace=wrap;rounded=0;" parent="1" vertex="1">
          <mxGeometry x="68" y="806" width="310" height="30" as="geometry" />
        </mxCell>
        <mxCell id="BOkPXNL5kLNex8SF89P--4" value="&lt;font style=&quot;font-size: 13px&quot;&gt;Galería de fotos de &quot;extras principales&quot;... se suprime esta opción y queda integrada dentro del slide-show principal con las fotos del coche.&lt;/font&gt;" style="rounded=1;fontSize=18;fillColor=#CC0000;align=left;perimeterSpacing=6;strokeWidth=2;glass=0;shadow=1;sketch=0;whiteSpace=wrap;html=1;fontColor=#FFFFFF;labelBackgroundColor=none;labelBorderColor=none;spacingLeft=0;spacingBottom=0;spacingRight=0;spacing=14;arcSize=0;" parent="1" vertex="1">
          <mxGeometry x="840" y="820" width="370" height="100" as="geometry" />
        </mxCell>
        <mxCell id="BOkPXNL5kLNex8SF89P--8" value="Concesionarios" style="swimlane;fontStyle=1;childLayout=stackLayout;horizontal=1;startSize=30;horizontalStack=0;resizeParent=1;resizeParentMax=0;resizeLast=0;collapsible=1;marginBottom=0;fillColor=#F0F0F0;strokeColor=default;gradientColor=none;swimlaneFillColor=default;strokeWidth=1;perimeterSpacing=0;rounded=1;shadow=1;sketch=0;glass=0;fontSize=14;fontColor=#7D7D7D;arcSize=0;" parent="1" vertex="1">
          <mxGeometry x="1030" y="-60" width="230" height="60" as="geometry">
            <mxRectangle x="520" y="-150" width="70" height="30" as="alternateBounds" />
          </mxGeometry>
        </mxCell>
        <mxCell id="BOkPXNL5kLNex8SF89P--11" value="" style="endArrow=classic;html=1;rounded=0;fontSize=13;fontColor=#7D7D7D;" parent="1" edge="1">
          <mxGeometry relative="1" as="geometry">
            <mxPoint x="1050" y="220" as="sourcePoint" />
            <mxPoint x="1180" as="targetPoint" />
            <Array as="points">
              <mxPoint x="1180" y="220" />
            </Array>
          </mxGeometry>
        </mxCell>
        <mxCell id="BOkPXNL5kLNex8SF89P--12" value="Label" style="edgeLabel;resizable=0;html=1;align=center;verticalAlign=middle;shadow=1;glass=0;labelBackgroundColor=none;labelBorderColor=none;sketch=0;fontSize=13;fontColor=#7D7D7D;strokeWidth=1;fillColor=#F0F0F0;" parent="BOkPXNL5kLNex8SF89P--11" connectable="0" vertex="1">
          <mxGeometry relative="1" as="geometry" />
        </mxCell>
        <mxCell id="BOkPXNL5kLNex8SF89P--13" style="edgeStyle=orthogonalEdgeStyle;rounded=0;orthogonalLoop=1;jettySize=auto;html=1;exitX=0;exitY=0.5;exitDx=0;exitDy=0;entryX=0.071;entryY=-0.011;entryDx=0;entryDy=0;entryPerimeter=0;fontSize=13;fontColor=#7D7D7D;" parent="1" source="n5QsFFlIIkBd-EJtn_40-39" target="n5QsFFlIIkBd-EJtn_40-1" edge="1">
          <mxGeometry relative="1" as="geometry" />
        </mxCell>
        <mxCell id="BOkPXNL5kLNex8SF89P--14" style="edgeStyle=orthogonalEdgeStyle;rounded=0;orthogonalLoop=1;jettySize=auto;html=1;exitX=0;exitY=0.5;exitDx=0;exitDy=0;entryX=0.154;entryY=-0.001;entryDx=0;entryDy=0;entryPerimeter=0;fontSize=13;fontColor=#7D7D7D;" parent="1" source="tPE-32FipRdGpnMbUiPh-10" target="n5QsFFlIIkBd-EJtn_40-1" edge="1">
          <mxGeometry relative="1" as="geometry" />
        </mxCell>
      </root>
    </mxGraphModel>
  </diagram>
</mxfile>
